<?xml version="1.0" encoding="UTF-8"?>
<svg xmlns="http://www.w3.org/2000/svg" version="1.1" viewBox="0 0 32 32">
  <defs>
    <style>
      .cls-1 {
        fill: #fff;
        stroke: #1d1d1b;
        stroke-miterlimit: 10;
        stroke-width: .25px;
      }
    </style>
  </defs>
  <!-- Generator: Adobe Illustrator 28.7.5, SVG Export Plug-In . SVG Version: 1.2.0 Build 176)  -->
  <g>
    <g id="Vrstva_1">
      <path class="cls-1" d="M20.36,16l7.1-7.1c1.21-1.21,1.21-3.16,0-4.37s-3.16-1.21-4.37,0l-7.1,7.1-7.08-7.08c-1.2-1.2-3.16-1.2-4.36,0-1.2,1.2-1.2,3.16,0,4.36l7.08,7.08-7.1,7.1c-1.21,1.21-1.21,3.16,0,4.37s3.16,1.21,4.37,0l7.1-7.1,7.08,7.08c1.2,1.2,3.16,1.2,4.36,0s1.2-3.16,0-4.36l-7.08-7.08Z"/>
    </g>
  </g>
</svg>