<?xml version="1.0" encoding="UTF-8"?>
<svg xmlns="http://www.w3.org/2000/svg" version="1.1" viewBox="0 0 595.28 841.89">
  <defs>
    <style>
      .cls-1 {
        fill: #fff;
      }
    </style>
  </defs>
  <!-- Generator: Adobe Illustrator 28.7.5, SVG Export Plug-In . SVG Version: 1.2.0 Build 176)  -->
  <g>
    <g id="Vrstva_1">
      <path class="cls-1" d="M300.87,160.1c-128.79,0-233.2,104.41-233.2,233.2s104.41,233.2,233.2,233.2,233.2-104.41,233.2-233.2-104.41-233.2-233.2-233.2ZM411.72,409.39h0c-9.18,9.18-24.05,9.18-33.23,0l-53.51-53.51v131.17c0,12.86-10.42,23.28-23.28,23.28h0c-12.86,0-23.28-10.42-23.28-23.28v-130.28l-52.62,52.62c-9.18,9.18-24.05,9.18-33.23,0h0c-9.18-9.18-9.18-24.05,0-33.23l92.74-92.74c4.64-4.64,10.75-6.93,16.83-6.87,6.09-.06,12.19,2.23,16.83,6.87l92.74,92.74c9.18,9.18,9.18,24.05,0,33.23Z"/>
    </g>
  </g>
</svg>